{
  "accessors": [
    {
      "bufferView": 2,
      "componentType": 5126,
      "count": 10697,
      "max": [
        0.07303577661514282,
        0.016132572665810585,
        0.09364554286003113
      ],
      "min": [
        -0.043276023119688034,
        -0.013599219731986523,
        0.011939993128180504
      ],
      "type": "VEC3"
    },
    {
      "bufferView": 2,
      "byteOffset": 128364,
      "componentType": 5126,
      "count": 10697,
      "max": [
        0.9996449947357178,
        0.9999953508377075,
        0.9998632073402405
      ],
      "min": [
        -0.999355673789978,
        -0.999972403049469,
        -0.9999113082885742
      ],
      "type": "VEC3"
    },
    {
      "bufferView": 1,
      "componentType": 5126,
      "count": 10697,
      "max": [
        0.9583852291107178,
        0.9178774952888489
      ],
      "min": [
        0.0,
        0.0
      ],
      "type": "VEC2"
    },
    {
      "bufferView": 1,
      "byteOffset": 85576,
      "componentType": 5126,
      "count": 10697,
      "max": [
        0.9583852291107178,
        0.9178774952888489
      ],
      "min": [
        0.0,
        0.0
      ],
      "type": "VEC2"
    },
    {
      "bufferView": 0,
      "componentType": 5125,
      "count": 54597,
      "type": "SCALAR"
    },
    {
      "bufferView": 2,
      "byteOffset": 256728,
      "componentType": 5126,
      "count": 2911,
      "max": [
        -0.013051442801952362,
        0.008989701978862286,
        0.09584616869688034
      ],
      "min": [
        -0.0471109114587307,
        -0.007676837034523487,
        0.06439665704965591
      ],
      "type": "VEC3"
    },
    {
      "bufferView": 2,
      "byteOffset": 291660,
      "componentType": 5126,
      "count": 2911,
      "max": [
        0.9464460611343384,
        0.9999296069145203,
        0.9952710270881653
      ],
      "min": [
        -0.9970765709877014,
        -0.9997729063034058,
        -0.9998297691345215
      ],
      "type": "VEC3"
    },
    {
      "bufferView": 1,
      "byteOffset": 171152,
      "componentType": 5126,
      "count": 2911,
      "max": [
        0.9774746894836426,
        0.9337974786758423
      ],
      "min": [
        0.0,
        0.0
      ],
      "type": "VEC2"
    },
    {
      "bufferView": 1,
      "byteOffset": 194440,
      "componentType": 5126,
      "count": 2911,
      "max": [
        0.9774746894836426,
        0.9337974786758423
      ],
      "min": [
        0.0,
        0.0
      ],
      "type": "VEC2"
    },
    {
      "bufferView": 0,
      "byteOffset": 218388,
      "componentType": 5125,
      "count": 15837,
      "type": "SCALAR"
    },
    {
      "bufferView": 2,
      "byteOffset": 326592,
      "componentType": 5126,
      "count": 3242,
      "max": [
        -0.004659481346607208,
        0.005711924284696579,
        0.09865141659975052
      ],
      "min": [
        -0.038346946239471436,
        -0.004541389644145966,
        0.07627581059932709
      ],
      "type": "VEC3"
    },
    {
      "bufferView": 2,
      "byteOffset": 365496,
      "componentType": 5126,
      "count": 3242,
      "max": [
        0.9995185732841492,
        0.9999950528144836,
        0.9995182752609253
      ],
      "min": [
        -0.9973198175430298,
        -0.999972403049469,
        -0.9990747570991516
      ],
      "type": "VEC3"
    },
    {
      "bufferView": 1,
      "byteOffset": 217728,
      "componentType": 5126,
      "count": 3242,
      "max": [
        0.9984176158905029,
        0.9975665211677551
      ],
      "min": [
        0.0,
        0.0
      ],
      "type": "VEC2"
    },
    {
      "bufferView": 1,
      "byteOffset": 243664,
      "componentType": 5126,
      "count": 3242,
      "max": [
        0.9984176158905029,
        0.9975665211677551
      ],
      "min": [
        0.0,
        0.0
      ],
      "type": "VEC2"
    },
    {
      "bufferView": 0,
      "byteOffset": 281736,
      "componentType": 5125,
      "count": 16890,
      "type": "SCALAR"
    }
  ],
  "asset": {
    "extras": {
      "author": "Лапшин Сергей (https://sketchfab.com/serg111)",
      "license": "CC-BY-4.0 (http://creativecommons.org/licenses/by/4.0/)",
      "source": "https://sketchfab.com/3d-models/horse-stl-ea54830dc4d444de809ee106ee5f55cd",
      "title": "horse (stl)"
    },
    "generator": "Sketchfab-16.33.0",
    "version": "2.0"
  },
  "bufferViews": [
    {
      "buffer": 0,
      "byteLength": 349296,
      "name": "floatBufferViews",
      "target": 34963
    },
    {
      "buffer": 0,
      "byteLength": 269600,
      "byteOffset": 349296,
      "byteStride": 8,
      "name": "floatBufferViews",
      "target": 34962
    },
    {
      "buffer": 0,
      "byteLength": 404400,
      "byteOffset": 618896,
      "byteStride": 12,
      "name": "floatBufferViews",
      "target": 34962
    }
  ],
  "buffers": [
    {
      "byteLength": 1023296,
      "uri": "scene.bin"
    }
  ],
  "materials": [
    {
      "doubleSided": true,
      "name": "horse_statue_01",
      "pbrMetallicRoughness": {
        "baseColorFactor": [
          0.8,
          0.8,
          0.8,
          1.0
        ],
        "metallicFactor": 0.0,
        "roughnessFactor": 0.8211145618000169
      }
    },
    {
      "doubleSided": true,
      "name": "horse_statue_01.007",
      "pbrMetallicRoughness": {
        "baseColorFactor": [
          0.8,
          0.8,
          0.8,
          1.0
        ],
        "metallicFactor": 0.0,
        "roughnessFactor": 0.8211145618000169
      }
    },
    {
      "doubleSided": true,
      "name": "horse_statue_01.008",
      "pbrMetallicRoughness": {
        "baseColorFactor": [
          0.8,
          0.8,
          0.8,
          1.0
        ],
        "metallicFactor": 0.0,
        "roughnessFactor": 0.8211145618000169
      }
    }
  ],
  "meshes": [
    {
      "name": "horse_statue_01_horse_statue_01_0",
      "primitives": [
        {
          "attributes": {
            "NORMAL": 1,
            "POSITION": 0,
            "TEXCOORD_0": 2,
            "TEXCOORD_1": 3
          },
          "indices": 4,
          "material": 0,
          "mode": 4
        }
      ]
    },
    {
      "name": "horse_statue_01_horse_statue_01.007_0",
      "primitives": [
        {
          "attributes": {
            "NORMAL": 6,
            "POSITION": 5,
            "TEXCOORD_0": 7,
            "TEXCOORD_1": 8
          },
          "indices": 9,
          "material": 1,
          "mode": 4
        }
      ]
    },
    {
      "name": "horse_statue_01_horse_statue_01.008_0",
      "primitives": [
        {
          "attributes": {
            "NORMAL": 11,
            "POSITION": 10,
            "TEXCOORD_0": 12,
            "TEXCOORD_1": 13
          },
          "indices": 14,
          "material": 2,
          "mode": 4
        }
      ]
    }
  ],
  "nodes": [
    {
      "children": [
        1
      ],
      "matrix": [
        1.0,
        -1.6081226229577292e-16,
        -3.5707495248565405e-32,
        0.0,
        0.0,
        2.220446049250313e-16,
        -1.0,
        0.0,
        1.6081226229577292e-16,
        1.0,
        2.220446049250313e-16,
        0.0,
        0.0,
        0.0,
        0.0,
        1.0
      ],
      "name": "Sketchfab_model"
    },
    {
      "children": [
        2
      ],
      "matrix": [
        0.009999999776482582,
        0.0,
        0.0,
        0.0,
        0.0,
        0.0,
        0.009999999776482582,
        0.0,
        0.0,
        -0.009999999776482582,
        0.0,
        0.0,
        0.0,
        0.0,
        0.0,
        1.0
      ],
      "name": "d99e963af3864df59f626fe901011884.fbx"
    },
    {
      "children": [
        3
      ],
      "name": "RootNode"
    },
    {
      "children": [
        4,
        5,
        6
      ],
      "matrix": [
        100.0,
        0.0,
        0.0,
        0.0,
        0.0,
        -1.629206793918314e-05,
        -99.99999999999868,
        0.0,
        0.0,
        99.99999999999868,
        -1.629206793918314e-05,
        0.0,
        0.0,
        0.0,
        0.0,
        1.0
      ],
      "name": "horse_statue_01"
    },
    {
      "mesh": 0,
      "name": "horse_statue_01_horse_statue_01_0"
    },
    {
      "mesh": 1,
      "name": "horse_statue_01_horse_statue_01.007_0"
    },
    {
      "mesh": 2,
      "name": "horse_statue_01_horse_statue_01.008_0"
    }
  ],
  "scene": 0,
  "scenes": [
    {
      "name": "Sketchfab_Scene",
      "nodes": [
        0
      ]
    }
  ]
}
